<svg xmlns="http://www.w3.org/2000/svg" viewBox="3.00336 2.99597 14 14">
  <path d="M12.0039978027344,3.9959716796875C9.80199432373047,3.9959716796875 8.00399780273438,5.7939453125 8.00399780273438,7.9959716796875 8.00399780273438,10.197998046875 9.80199432373047,11.9959716796875 12.0039978027344,11.9959716796875 14.2060012817383,11.9959716796875 16.0039978027344,10.197998046875 16.0039978027344,7.9959716796875 16.0039978027344,5.7939453125 14.2060012817383,3.9959716796875 12.0039978027344,3.9959716796875z M12.0039978027344,2.9959716796875C14.7519989013672,2.9959716796875 17.0039978027344,5.24798583984375 17.0039978027344,7.9959716796875 17.0039978027344,10.7439575195313 14.7519989013672,12.9959716796875 12.0039978027344,12.9959716796875 10.8089981079102,12.9959716796875 9.72200012207031,12.5549926757813 8.85900115966797,11.8479614257813L3.85799431800842,16.8499755859375C3.73152160644531,16.9764404296875 3.54718017578125,17.0258178710938 3.3744204044342,16.9795532226563 3.20165252685547,16.9332275390625 3.06671142578125,16.7982788085938 3.02042388916016,16.6255493164063C2.97413635253906,16.4527587890625,3.02352905273438,16.2684326171875,3.15000152587891,16.1419677734375L8.15200042724609,11.1409912109375C7.44499969482422,10.2779541015625 7.00399780273438,9.18994140625 7.00399780273438,7.9959716796875 7.00399780273438,5.24798583984375 9.25599670410156,2.9959716796875 12.0039978027344,2.9959716796875z" fill="#FFFFFF"/>
</svg>